<svg width="38" height="38" viewBox="0 0 38 38" fill="none" xmlns="http://www.w3.org/2000/svg">
<path d="M19.2875 14.3916C18.8523 11.8778 18.1271 10.8723 15.2262 9.53159M15.2262 9.53159C14.2947 9.36481 13.9298 9.58992 13.0505 10.0344C11.7186 11.223 11.319 12.1486 10.8748 14.1611C10.5092 17.0122 10.6745 17.9447 11.8902 19.5868C12.4542 19.9982 12.9058 20.3097 13.3406 20.5284M15.2262 9.53159C17.4556 10.4931 18.6622 10.921 20.3027 10.3695C22.7483 9.4631 23.2731 9.18612 24.7991 10.0344C26.0989 10.9563 27.2649 14.7268 27.1198 16.4027C26.9748 18.0785 26.6633 19.0855 24.509 20.9275C24.3078 23.5963 24.0861 24.9002 23.3487 26.6254C22.3334 28.4688 20.5928 28.9716 20.4478 27.7985C20.3027 26.6254 20.3027 23.7764 20.0127 23.2737C19.7226 22.7709 18.1271 22.1006 17.6919 23.4412C17.2568 24.7819 17.4018 26.6254 17.4018 27.7985C17.4018 28.9716 15.2262 28.1336 14.646 27.2957C14.0658 26.4578 13.5602 24.2032 13.3406 20.5284M15.0812 20.9275C14.4024 20.9306 13.8847 20.8022 13.3406 20.5284" stroke="#FAFAFA" stroke-opacity="0.980392" stroke-width="1.5" stroke-linecap="round"/>
<path d="M32.6044 13.0536C27.818 -2.86697 5.48107 -1.86145 4.17567 18.9191M4.17567 18.9191L2 16.4054M4.17567 18.9191L6.78647 16.9081M5.19098 25.1198C10.2675 41.0404 32.8945 39.6997 33.6197 18.584M33.6197 18.584L31.0089 20.595M33.6197 18.584L35.7954 20.9302" stroke="#6BD4CF" stroke-width="3" stroke-linecap="round"/>
</svg>
