<svg width="231" height="199" viewBox="0 0 231 199" fill="none" xmlns="http://www.w3.org/2000/svg">
<path d="M91.5945 46.545C85.5305 45.6123 83.1553 46.8713 77.4313 49.3567C68.761 56.0044 66.1598 61.1808 63.2682 72.4354C60.8877 88.3801 61.9641 93.5952 69.8777 102.778C73.5497 105.079 76.4896 106.821 79.3197 108.045C80.7491 128.595 84.0407 141.204 87.8175 145.89C91.5944 150.577 105.757 155.263 105.757 148.702C105.757 142.142 104.813 131.832 107.646 124.334C110.478 116.837 120.865 120.586 122.753 123.397C124.642 126.209 124.642 142.142 125.586 148.702C126.53 155.263 137.86 152.451 144.47 142.142C149.27 132.494 150.714 125.202 152.023 110.276C166.047 99.975 168.075 94.3435 169.019 84.9713C169.963 75.5991 162.373 54.5124 153.912 49.3567C143.978 44.613 140.561 46.162 124.642 51.2312C113.962 54.3155 106.108 51.9222 91.5945 46.545Z" fill="white"/>
<path d="M118.032 73.7247C115.2 59.6664 110.478 54.0428 91.5945 46.545M91.5945 46.545C85.5305 45.6123 83.1553 46.8713 77.4313 49.3567C68.761 56.0044 66.1598 61.1808 63.2682 72.4354C60.8877 88.3801 61.9641 93.5952 69.8777 102.778C73.5497 105.079 76.4896 106.821 79.3197 108.045M91.5945 46.545C106.108 51.9222 113.962 54.3155 124.642 51.2312C140.561 46.162 143.978 44.613 153.912 49.3567C162.373 54.5124 169.963 75.5991 169.019 84.9713C168.075 94.3435 166.047 99.975 152.024 110.276C150.714 125.202 149.27 132.494 144.47 142.142C137.86 152.451 126.53 155.263 125.586 148.702C124.642 142.142 124.642 126.209 122.753 123.397C120.865 120.586 110.478 116.837 107.646 124.334C104.813 131.832 105.757 142.142 105.757 148.702C105.757 155.263 91.5944 150.577 87.8175 145.89C84.0407 141.204 80.7491 128.595 79.3197 108.045M90.6503 110.276C86.232 110.294 82.8619 109.576 79.3197 108.045" stroke="#536B8A" stroke-width="7" stroke-linecap="round"/>
<path d="M204.727 66.2436C173.569 -22.7919 28.1609 -17.1685 19.6631 99.0462M19.6631 99.0462L5.5 84.9881M19.6631 99.0462L36.6588 87.7998M26.2725 133.723C59.3197 222.759 206.616 215.261 211.337 97.172M211.337 97.172L194.341 108.419M211.337 97.172L225.5 110.293" stroke="#6BD4CF" stroke-width="10" stroke-linecap="round"/>
</svg>
