<svg width="130" height="114" viewBox="0 0 130 114" fill="none" xmlns="http://www.w3.org/2000/svg">
<path d="M66.1299 45.4066C64.8652 39.083 62.7573 36.5535 54.3259 33.1809M54.3259 33.1809C51.6185 32.7613 50.558 33.3276 48.0023 34.4456C44.1312 37.4358 42.9698 39.7642 41.6788 44.8267C40.6159 51.9987 41.0965 54.3445 44.6298 58.4753C46.2693 59.5102 47.5819 60.2938 48.8455 60.844M54.3259 33.1809C60.8057 35.5996 64.3126 36.6761 69.0808 35.2888C76.1887 33.0086 77.7142 32.3119 82.1495 34.4456C85.9272 36.7647 89.3162 46.2497 88.8946 50.4654C88.473 54.6811 87.5676 57.2143 81.3063 61.8478C80.7216 68.5614 80.0771 71.8416 77.9338 76.1812C74.9828 80.8185 69.924 82.0832 69.5024 79.1322C69.0808 76.1812 69.0808 69.0145 68.2377 67.7498C67.3945 66.4851 62.7573 64.7988 61.4926 68.1714C60.2279 71.5439 60.6494 76.1812 60.6494 79.1322C60.6494 82.0832 54.3259 79.9753 52.6396 77.8675C50.9533 75.7596 49.4836 70.088 48.8455 60.844M53.9044 61.8478C51.9317 61.8556 50.427 61.5327 48.8455 60.844" stroke="#F6FBFF" stroke-width="4" stroke-linecap="round"/>
<path d="M104.838 42.0412C90.9262 1.99209 26.0044 4.52153 22.2103 56.7961M22.2103 56.7961L15.8867 50.4726M22.2103 56.7961L29.7985 51.7374M25.1613 72.3943C39.9162 112.443 105.681 109.071 107.789 55.9531M107.789 55.9531L100.201 61.0119M107.789 55.9531L114.113 61.855" stroke="#6BD4CF" stroke-width="7" stroke-linecap="round"/>
</svg>
