<svg width="333" height="333" viewBox="0 0 333 333" fill="none" xmlns="http://www.w3.org/2000/svg">
<rect width="333" height="333" fill="#1F49D6"/>
<path d="M169.275 133.631C166.172 115.705 161 108.534 140.313 98.9735M140.313 98.9735C133.67 97.7841 131.069 99.3894 124.798 102.559C115.3 111.035 112.451 117.636 109.283 131.987C106.675 152.319 107.855 158.969 116.523 170.679C120.546 173.612 123.767 175.834 126.867 177.394M140.313 98.9735C156.212 105.83 164.816 108.882 176.515 104.949C193.954 98.485 197.697 96.5099 208.579 102.559C217.848 109.133 226.163 136.021 225.129 147.972C224.094 159.923 221.873 167.104 206.511 180.239C205.076 199.271 203.494 208.57 198.236 220.872C190.996 234.018 178.584 237.603 177.549 229.237C176.515 220.872 176.515 200.555 174.446 196.97C172.378 193.385 161 188.605 157.897 198.165C154.794 207.726 155.828 220.872 155.828 229.237C155.828 237.603 140.313 231.627 136.176 225.652C132.038 219.677 128.433 203.599 126.867 177.394M139.279 180.239C134.439 180.261 130.747 179.346 126.867 177.394" stroke="white" stroke-width="8.60399" stroke-linecap="round"/>
<path d="M264.245 124.094C230.112 10.5617 70.824 17.7322 61.515 165.921M61.515 165.921L46 147.995M61.515 165.921L80.1331 151.581M68.7554 210.139C104.957 323.672 266.313 314.111 271.485 163.531M271.485 163.531L252.867 177.872M271.485 163.531L287 180.263" stroke="#5EFFCC" stroke-width="17.208" stroke-linecap="round"/>
</svg>
