<svg width="154" height="154" viewBox="0 0 154 154" fill="none" xmlns="http://www.w3.org/2000/svg">
<rect width="154" height="154" rx="4" fill="#FAFDFF"/>
<path d="M128.429 114.609C125.629 107.927 121.566 101.857 116.465 96.7378C111.38 91.6038 105.357 87.5105 98.727 84.6838C98.6676 84.6539 98.6082 84.639 98.5489 84.609C107.797 77.8791 113.808 66.9169 113.808 54.5488C113.808 34.0599 97.3317 17.4595 76.9957 17.4595C56.6598 17.4595 40.1832 34.0599 40.1832 54.5488C40.1832 66.9169 46.195 77.8791 55.4426 84.624C55.3832 84.6539 55.3239 84.6689 55.2645 84.6988C48.6145 87.5253 42.6473 91.5782 37.5262 96.7528C32.4305 101.876 28.3677 107.945 25.5621 114.624C22.806 121.164 21.3195 128.175 21.1832 135.278C21.1793 135.437 21.2071 135.596 21.265 135.745C21.3229 135.893 21.4097 136.029 21.5204 136.143C21.631 136.257 21.7633 136.348 21.9093 136.41C22.0554 136.472 22.2123 136.504 22.3707 136.504H31.277C31.9301 136.504 32.4496 135.981 32.4645 135.338C32.7614 123.792 37.3629 112.979 45.4973 104.784C53.9137 96.3041 65.091 91.6381 76.9957 91.6381C88.9004 91.6381 100.078 96.3041 108.494 104.784C116.629 112.979 121.23 123.792 121.527 135.338C121.542 135.996 122.061 136.504 122.714 136.504H131.621C131.779 136.504 131.936 136.472 132.082 136.41C132.228 136.348 132.36 136.257 132.471 136.143C132.582 136.029 132.669 135.893 132.727 135.745C132.784 135.596 132.812 135.437 132.808 135.278C132.66 128.129 131.19 121.175 128.429 114.609ZM76.9957 80.272C70.1825 80.272 63.77 77.595 58.9457 72.7345C54.1215 67.874 51.4645 61.4133 51.4645 54.5488C51.4645 47.6843 54.1215 41.2235 58.9457 36.363C63.77 31.5026 70.1825 28.8255 76.9957 28.8255C83.809 28.8255 90.2215 31.5026 95.0457 36.363C99.8699 41.2235 102.527 47.6843 102.527 54.5488C102.527 61.4133 99.8699 67.874 95.0457 72.7345C90.2215 77.595 83.809 80.272 76.9957 80.272Z" fill="#C3D4FF"/>
</svg>
